<?xml version="1.0" encoding="utf-8" standalone="no"?>
<!DOCTYPE svg PUBLIC "-//W3C//DTD SVG 1.1//EN"
  "http://www.w3.org/Graphics/SVG/1.1/DTD/svg11.dtd">
<!-- Created with matplotlib (https://matplotlib.org/) -->
<svg height="414.690375pt" version="1.1" viewBox="0 0 422.843437 414.690375" width="422.843437pt" xmlns="http://www.w3.org/2000/svg" xmlns:xlink="http://www.w3.org/1999/xlink">
 <defs>
  <style type="text/css">
*{stroke-linecap:butt;stroke-linejoin:round;}
  </style>
 </defs>
 <g id="figure_1">
  <g id="patch_1">
   <path d="M 0 414.690375 
L 422.843437 414.690375 
L 422.843437 0 
L 0 0 
z
" style="fill:#ffffff;"/>
  </g>
  <g id="axes_1">
   <g id="patch_2">
    <path d="M 58.523438 86.830125 
L 415.643438 86.830125 
L 415.643438 22.318125 
L 58.523438 22.318125 
z
" style="fill:#ffffff;"/>
   </g>
   <g id="matplotlib.axis_1">
    <g id="xtick_1">
     <g id="line2d_1">
      <defs>
       <path d="M 0 0 
L 0 3.5 
" id="m650711b48d" style="stroke:#000000;stroke-width:0.8;"/>
      </defs>
      <g>
       <use style="stroke:#000000;stroke-width:0.8;" x="74.756165" xlink:href="#m650711b48d" y="86.830125"/>
      </g>
     </g>
    </g>
    <g id="xtick_2">
     <g id="line2d_2">
      <g>
       <use style="stroke:#000000;stroke-width:0.8;" x="115.337983" xlink:href="#m650711b48d" y="86.830125"/>
      </g>
     </g>
    </g>
    <g id="xtick_3">
     <g id="line2d_3">
      <g>
       <use style="stroke:#000000;stroke-width:0.8;" x="155.919801" xlink:href="#m650711b48d" y="86.830125"/>
      </g>
     </g>
    </g>
    <g id="xtick_4">
     <g id="line2d_4">
      <g>
       <use style="stroke:#000000;stroke-width:0.8;" x="196.501619" xlink:href="#m650711b48d" y="86.830125"/>
      </g>
     </g>
    </g>
    <g id="xtick_5">
     <g id="line2d_5">
      <g>
       <use style="stroke:#000000;stroke-width:0.8;" x="237.083437" xlink:href="#m650711b48d" y="86.830125"/>
      </g>
     </g>
    </g>
    <g id="xtick_6">
     <g id="line2d_6">
      <g>
       <use style="stroke:#000000;stroke-width:0.8;" x="277.665256" xlink:href="#m650711b48d" y="86.830125"/>
      </g>
     </g>
    </g>
    <g id="xtick_7">
     <g id="line2d_7">
      <g>
       <use style="stroke:#000000;stroke-width:0.8;" x="318.247074" xlink:href="#m650711b48d" y="86.830125"/>
      </g>
     </g>
    </g>
    <g id="xtick_8">
     <g id="line2d_8">
      <g>
       <use style="stroke:#000000;stroke-width:0.8;" x="358.828892" xlink:href="#m650711b48d" y="86.830125"/>
      </g>
     </g>
    </g>
    <g id="xtick_9">
     <g id="line2d_9">
      <g>
       <use style="stroke:#000000;stroke-width:0.8;" x="399.41071" xlink:href="#m650711b48d" y="86.830125"/>
      </g>
     </g>
    </g>
   </g>
   <g id="matplotlib.axis_2">
    <g id="ytick_1">
     <g id="line2d_10">
      <defs>
       <path d="M 0 0 
L -3.5 0 
" id="m110d8ee265" style="stroke:#000000;stroke-width:0.8;"/>
      </defs>
      <g>
       <use style="stroke:#000000;stroke-width:0.8;" x="58.523438" xlink:href="#m110d8ee265" y="76.18695"/>
      </g>
     </g>
     <g id="text_1">
      <!-- −0.25 -->
      <defs>
       <path d="M 10.59375 35.5 
L 73.1875 35.5 
L 73.1875 27.203125 
L 10.59375 27.203125 
z
" id="DejaVuSans-8722"/>
       <path d="M 31.78125 66.40625 
Q 24.171875 66.40625 20.328125 58.90625 
Q 16.5 51.421875 16.5 36.375 
Q 16.5 21.390625 20.328125 13.890625 
Q 24.171875 6.390625 31.78125 6.390625 
Q 39.453125 6.390625 43.28125 13.890625 
Q 47.125 21.390625 47.125 36.375 
Q 47.125 51.421875 43.28125 58.90625 
Q 39.453125 66.40625 31.78125 66.40625 
z
M 31.78125 74.21875 
Q 44.046875 74.21875 50.515625 64.515625 
Q 56.984375 54.828125 56.984375 36.375 
Q 56.984375 17.96875 50.515625 8.265625 
Q 44.046875 -1.421875 31.78125 -1.421875 
Q 19.53125 -1.421875 13.0625 8.265625 
Q 6.59375 17.96875 6.59375 36.375 
Q 6.59375 54.828125 13.0625 64.515625 
Q 19.53125 74.21875 31.78125 74.21875 
z
" id="DejaVuSans-48"/>
       <path d="M 10.6875 12.40625 
L 21 12.40625 
L 21 0 
L 10.6875 0 
z
" id="DejaVuSans-46"/>
       <path d="M 19.1875 8.296875 
L 53.609375 8.296875 
L 53.609375 0 
L 7.328125 0 
L 7.328125 8.296875 
Q 12.9375 14.109375 22.625 23.890625 
Q 32.328125 33.6875 34.8125 36.53125 
Q 39.546875 41.84375 41.421875 45.53125 
Q 43.3125 49.21875 43.3125 52.78125 
Q 43.3125 58.59375 39.234375 62.25 
Q 35.15625 65.921875 28.609375 65.921875 
Q 23.96875 65.921875 18.8125 64.3125 
Q 13.671875 62.703125 7.8125 59.421875 
L 7.8125 69.390625 
Q 13.765625 71.78125 18.9375 73 
Q 24.125 74.21875 28.421875 74.21875 
Q 39.75 74.21875 46.484375 68.546875 
Q 53.21875 62.890625 53.21875 53.421875 
Q 53.21875 48.921875 51.53125 44.890625 
Q 49.859375 40.875 45.40625 35.40625 
Q 44.1875 33.984375 37.640625 27.21875 
Q 31.109375 20.453125 19.1875 8.296875 
z
" id="DejaVuSans-50"/>
       <path d="M 10.796875 72.90625 
L 49.515625 72.90625 
L 49.515625 64.59375 
L 19.828125 64.59375 
L 19.828125 46.734375 
Q 21.96875 47.46875 24.109375 47.828125 
Q 26.265625 48.1875 28.421875 48.1875 
Q 40.625 48.1875 47.75 41.5 
Q 54.890625 34.8125 54.890625 23.390625 
Q 54.890625 11.625 47.5625 5.09375 
Q 40.234375 -1.421875 26.90625 -1.421875 
Q 22.3125 -1.421875 17.546875 -0.640625 
Q 12.796875 0.140625 7.71875 1.703125 
L 7.71875 11.625 
Q 12.109375 9.234375 16.796875 8.0625 
Q 21.484375 6.890625 26.703125 6.890625 
Q 35.15625 6.890625 40.078125 11.328125 
Q 45.015625 15.765625 45.015625 23.390625 
Q 45.015625 31 40.078125 35.4375 
Q 35.15625 39.890625 26.703125 39.890625 
Q 22.75 39.890625 18.8125 39.015625 
Q 14.890625 38.140625 10.796875 36.28125 
z
" id="DejaVuSans-53"/>
      </defs>
      <g transform="translate(20.878125 79.986169)scale(0.1 -0.1)">
       <use xlink:href="#DejaVuSans-8722"/>
       <use x="83.789062" xlink:href="#DejaVuSans-48"/>
       <use x="147.412109" xlink:href="#DejaVuSans-46"/>
       <use x="179.199219" xlink:href="#DejaVuSans-50"/>
       <use x="242.822266" xlink:href="#DejaVuSans-53"/>
      </g>
     </g>
    </g>
    <g id="ytick_2">
     <g id="line2d_11">
      <g>
       <use style="stroke:#000000;stroke-width:0.8;" x="58.523438" xlink:href="#m110d8ee265" y="52.439742"/>
      </g>
     </g>
     <g id="text_2">
      <!-- 0.00 -->
      <g transform="translate(29.257813 56.23896)scale(0.1 -0.1)">
       <use xlink:href="#DejaVuSans-48"/>
       <use x="63.623047" xlink:href="#DejaVuSans-46"/>
       <use x="95.410156" xlink:href="#DejaVuSans-48"/>
       <use x="159.033203" xlink:href="#DejaVuSans-48"/>
      </g>
     </g>
    </g>
    <g id="ytick_3">
     <g id="line2d_12">
      <g>
       <use style="stroke:#000000;stroke-width:0.8;" x="58.523438" xlink:href="#m110d8ee265" y="28.692533"/>
      </g>
     </g>
     <g id="text_3">
      <!-- 0.25 -->
      <g transform="translate(29.257813 32.491752)scale(0.1 -0.1)">
       <use xlink:href="#DejaVuSans-48"/>
       <use x="63.623047" xlink:href="#DejaVuSans-46"/>
       <use x="95.410156" xlink:href="#DejaVuSans-50"/>
       <use x="159.033203" xlink:href="#DejaVuSans-53"/>
      </g>
     </g>
    </g>
    <g id="text_4">
     <!-- residuals -->
     <defs>
      <path d="M 41.109375 46.296875 
Q 39.59375 47.171875 37.8125 47.578125 
Q 36.03125 48 33.890625 48 
Q 26.265625 48 22.1875 43.046875 
Q 18.109375 38.09375 18.109375 28.8125 
L 18.109375 0 
L 9.078125 0 
L 9.078125 54.6875 
L 18.109375 54.6875 
L 18.109375 46.1875 
Q 20.953125 51.171875 25.484375 53.578125 
Q 30.03125 56 36.53125 56 
Q 37.453125 56 38.578125 55.875 
Q 39.703125 55.765625 41.0625 55.515625 
z
" id="DejaVuSans-114"/>
      <path d="M 56.203125 29.59375 
L 56.203125 25.203125 
L 14.890625 25.203125 
Q 15.484375 15.921875 20.484375 11.0625 
Q 25.484375 6.203125 34.421875 6.203125 
Q 39.59375 6.203125 44.453125 7.46875 
Q 49.3125 8.734375 54.109375 11.28125 
L 54.109375 2.78125 
Q 49.265625 0.734375 44.1875 -0.34375 
Q 39.109375 -1.421875 33.890625 -1.421875 
Q 20.796875 -1.421875 13.15625 6.1875 
Q 5.515625 13.8125 5.515625 26.8125 
Q 5.515625 40.234375 12.765625 48.109375 
Q 20.015625 56 32.328125 56 
Q 43.359375 56 49.78125 48.890625 
Q 56.203125 41.796875 56.203125 29.59375 
z
M 47.21875 32.234375 
Q 47.125 39.59375 43.09375 43.984375 
Q 39.0625 48.390625 32.421875 48.390625 
Q 24.90625 48.390625 20.390625 44.140625 
Q 15.875 39.890625 15.1875 32.171875 
z
" id="DejaVuSans-101"/>
      <path d="M 44.28125 53.078125 
L 44.28125 44.578125 
Q 40.484375 46.53125 36.375 47.5 
Q 32.28125 48.484375 27.875 48.484375 
Q 21.1875 48.484375 17.84375 46.4375 
Q 14.5 44.390625 14.5 40.28125 
Q 14.5 37.15625 16.890625 35.375 
Q 19.28125 33.59375 26.515625 31.984375 
L 29.59375 31.296875 
Q 39.15625 29.25 43.1875 25.515625 
Q 47.21875 21.78125 47.21875 15.09375 
Q 47.21875 7.46875 41.1875 3.015625 
Q 35.15625 -1.421875 24.609375 -1.421875 
Q 20.21875 -1.421875 15.453125 -0.5625 
Q 10.6875 0.296875 5.421875 2 
L 5.421875 11.28125 
Q 10.40625 8.6875 15.234375 7.390625 
Q 20.0625 6.109375 24.8125 6.109375 
Q 31.15625 6.109375 34.5625 8.28125 
Q 37.984375 10.453125 37.984375 14.40625 
Q 37.984375 18.0625 35.515625 20.015625 
Q 33.0625 21.96875 24.703125 23.78125 
L 21.578125 24.515625 
Q 13.234375 26.265625 9.515625 29.90625 
Q 5.8125 33.546875 5.8125 39.890625 
Q 5.8125 47.609375 11.28125 51.796875 
Q 16.75 56 26.8125 56 
Q 31.78125 56 36.171875 55.265625 
Q 40.578125 54.546875 44.28125 53.078125 
z
" id="DejaVuSans-115"/>
      <path d="M 9.421875 54.6875 
L 18.40625 54.6875 
L 18.40625 0 
L 9.421875 0 
z
M 9.421875 75.984375 
L 18.40625 75.984375 
L 18.40625 64.59375 
L 9.421875 64.59375 
z
" id="DejaVuSans-105"/>
      <path d="M 45.40625 46.390625 
L 45.40625 75.984375 
L 54.390625 75.984375 
L 54.390625 0 
L 45.40625 0 
L 45.40625 8.203125 
Q 42.578125 3.328125 38.25 0.953125 
Q 33.9375 -1.421875 27.875 -1.421875 
Q 17.96875 -1.421875 11.734375 6.484375 
Q 5.515625 14.40625 5.515625 27.296875 
Q 5.515625 40.1875 11.734375 48.09375 
Q 17.96875 56 27.875 56 
Q 33.9375 56 38.25 53.625 
Q 42.578125 51.265625 45.40625 46.390625 
z
M 14.796875 27.296875 
Q 14.796875 17.390625 18.875 11.75 
Q 22.953125 6.109375 30.078125 6.109375 
Q 37.203125 6.109375 41.296875 11.75 
Q 45.40625 17.390625 45.40625 27.296875 
Q 45.40625 37.203125 41.296875 42.84375 
Q 37.203125 48.484375 30.078125 48.484375 
Q 22.953125 48.484375 18.875 42.84375 
Q 14.796875 37.203125 14.796875 27.296875 
z
" id="DejaVuSans-100"/>
      <path d="M 8.5 21.578125 
L 8.5 54.6875 
L 17.484375 54.6875 
L 17.484375 21.921875 
Q 17.484375 14.15625 20.5 10.265625 
Q 23.53125 6.390625 29.59375 6.390625 
Q 36.859375 6.390625 41.078125 11.03125 
Q 45.3125 15.671875 45.3125 23.6875 
L 45.3125 54.6875 
L 54.296875 54.6875 
L 54.296875 0 
L 45.3125 0 
L 45.3125 8.40625 
Q 42.046875 3.421875 37.71875 1 
Q 33.40625 -1.421875 27.6875 -1.421875 
Q 18.265625 -1.421875 13.375 4.4375 
Q 8.5 10.296875 8.5 21.578125 
z
M 31.109375 56 
z
" id="DejaVuSans-117"/>
      <path d="M 34.28125 27.484375 
Q 23.390625 27.484375 19.1875 25 
Q 14.984375 22.515625 14.984375 16.5 
Q 14.984375 11.71875 18.140625 8.90625 
Q 21.296875 6.109375 26.703125 6.109375 
Q 34.1875 6.109375 38.703125 11.40625 
Q 43.21875 16.703125 43.21875 25.484375 
L 43.21875 27.484375 
z
M 52.203125 31.203125 
L 52.203125 0 
L 43.21875 0 
L 43.21875 8.296875 
Q 40.140625 3.328125 35.546875 0.953125 
Q 30.953125 -1.421875 24.3125 -1.421875 
Q 15.921875 -1.421875 10.953125 3.296875 
Q 6 8.015625 6 15.921875 
Q 6 25.140625 12.171875 29.828125 
Q 18.359375 34.515625 30.609375 34.515625 
L 43.21875 34.515625 
L 43.21875 35.40625 
Q 43.21875 41.609375 39.140625 45 
Q 35.0625 48.390625 27.6875 48.390625 
Q 23 48.390625 18.546875 47.265625 
Q 14.109375 46.140625 10.015625 43.890625 
L 10.015625 52.203125 
Q 14.9375 54.109375 19.578125 55.046875 
Q 24.21875 56 28.609375 56 
Q 40.484375 56 46.34375 49.84375 
Q 52.203125 43.703125 52.203125 31.203125 
z
" id="DejaVuSans-97"/>
      <path d="M 9.421875 75.984375 
L 18.40625 75.984375 
L 18.40625 0 
L 9.421875 0 
z
" id="DejaVuSans-108"/>
     </defs>
     <g transform="translate(14.798438 76.988188)rotate(-90)scale(0.1 -0.1)">
      <use xlink:href="#DejaVuSans-114"/>
      <use x="38.863281" xlink:href="#DejaVuSans-101"/>
      <use x="100.386719" xlink:href="#DejaVuSans-115"/>
      <use x="152.486328" xlink:href="#DejaVuSans-105"/>
      <use x="180.269531" xlink:href="#DejaVuSans-100"/>
      <use x="243.746094" xlink:href="#DejaVuSans-117"/>
      <use x="307.125" xlink:href="#DejaVuSans-97"/>
      <use x="368.404297" xlink:href="#DejaVuSans-108"/>
      <use x="396.1875" xlink:href="#DejaVuSans-115"/>
     </g>
    </g>
   </g>
   <g id="line2d_13">
    <path clip-path="url(#p87d322bb14)" d="M 58.523438 52.439742 
L 415.643438 52.439742 
" style="fill:none;stroke:#1f77b4;stroke-linecap:square;stroke-width:1.5;"/>
   </g>
   <g id="line2d_14">
    <defs>
     <path d="M 0 3 
C 0.795609 3 1.55874 2.683901 2.12132 2.12132 
C 2.683901 1.55874 3 0.795609 3 0 
C 3 -0.795609 2.683901 -1.55874 2.12132 -2.12132 
C 1.55874 -2.683901 0.795609 -3 0 -3 
C -0.795609 -3 -1.55874 -2.683901 -2.12132 -2.12132 
C -2.683901 -1.55874 -3 -0.795609 -3 0 
C -3 0.795609 -2.683901 1.55874 -2.12132 2.12132 
C -1.55874 2.683901 -0.795609 3 0 3 
z
" id="mc7680b70d3" style="stroke:#1f77b4;"/>
    </defs>
    <g clip-path="url(#p87d322bb14)">
     <use style="fill:#1f77b4;stroke:#1f77b4;" x="74.756165" xlink:href="#mc7680b70d3" y="52.538271"/>
     <use style="fill:#1f77b4;stroke:#1f77b4;" x="78.00271" xlink:href="#mc7680b70d3" y="52.538271"/>
     <use style="fill:#1f77b4;stroke:#1f77b4;" x="81.249256" xlink:href="#mc7680b70d3" y="52.538271"/>
     <use style="fill:#1f77b4;stroke:#1f77b4;" x="84.495801" xlink:href="#mc7680b70d3" y="52.51902"/>
     <use style="fill:#1f77b4;stroke:#1f77b4;" x="87.742347" xlink:href="#mc7680b70d3" y="52.527593"/>
     <use style="fill:#1f77b4;stroke:#1f77b4;" x="90.988892" xlink:href="#mc7680b70d3" y="52.538859"/>
     <use style="fill:#1f77b4;stroke:#1f77b4;" x="94.235437" xlink:href="#mc7680b70d3" y="52.54187"/>
     <use style="fill:#1f77b4;stroke:#1f77b4;" x="97.481983" xlink:href="#mc7680b70d3" y="52.530438"/>
     <use style="fill:#1f77b4;stroke:#1f77b4;" x="100.728528" xlink:href="#mc7680b70d3" y="52.542227"/>
     <use style="fill:#1f77b4;stroke:#1f77b4;" x="103.975074" xlink:href="#mc7680b70d3" y="52.551584"/>
     <use style="fill:#1f77b4;stroke:#1f77b4;" x="107.221619" xlink:href="#mc7680b70d3" y="52.552801"/>
     <use style="fill:#1f77b4;stroke:#1f77b4;" x="110.468165" xlink:href="#mc7680b70d3" y="52.561629"/>
     <use style="fill:#1f77b4;stroke:#1f77b4;" x="113.71471" xlink:href="#mc7680b70d3" y="52.542601"/>
     <use style="fill:#1f77b4;stroke:#1f77b4;" x="116.961256" xlink:href="#mc7680b70d3" y="52.541514"/>
     <use style="fill:#1f77b4;stroke:#1f77b4;" x="120.207801" xlink:href="#mc7680b70d3" y="52.574469"/>
     <use style="fill:#1f77b4;stroke:#1f77b4;" x="123.454347" xlink:href="#mc7680b70d3" y="52.564079"/>
     <use style="fill:#1f77b4;stroke:#1f77b4;" x="126.700892" xlink:href="#mc7680b70d3" y="52.563295"/>
     <use style="fill:#1f77b4;stroke:#1f77b4;" x="129.947437" xlink:href="#mc7680b70d3" y="52.565394"/>
     <use style="fill:#1f77b4;stroke:#1f77b4;" x="133.193983" xlink:href="#mc7680b70d3" y="52.569786"/>
     <use style="fill:#1f77b4;stroke:#1f77b4;" x="136.440528" xlink:href="#mc7680b70d3" y="52.568221"/>
     <use style="fill:#1f77b4;stroke:#1f77b4;" x="139.687074" xlink:href="#mc7680b70d3" y="52.587968"/>
     <use style="fill:#1f77b4;stroke:#1f77b4;" x="142.933619" xlink:href="#mc7680b70d3" y="52.608799"/>
     <use style="fill:#1f77b4;stroke:#1f77b4;" x="146.180165" xlink:href="#mc7680b70d3" y="52.595239"/>
     <use style="fill:#1f77b4;stroke:#1f77b4;" x="149.42671" xlink:href="#mc7680b70d3" y="52.603845"/>
     <use style="fill:#1f77b4;stroke:#1f77b4;" x="152.673256" xlink:href="#mc7680b70d3" y="52.61089"/>
     <use style="fill:#1f77b4;stroke:#1f77b4;" x="155.919801" xlink:href="#mc7680b70d3" y="52.587405"/>
     <use style="fill:#1f77b4;stroke:#1f77b4;" x="159.166347" xlink:href="#mc7680b70d3" y="52.57412"/>
     <use style="fill:#1f77b4;stroke:#1f77b4;" x="162.412892" xlink:href="#mc7680b70d3" y="52.593204"/>
     <use style="fill:#1f77b4;stroke:#1f77b4;" x="165.659437" xlink:href="#mc7680b70d3" y="52.590058"/>
     <use style="fill:#1f77b4;stroke:#1f77b4;" x="168.905983" xlink:href="#mc7680b70d3" y="52.540411"/>
     <use style="fill:#1f77b4;stroke:#1f77b4;" x="172.152528" xlink:href="#mc7680b70d3" y="52.470067"/>
     <use style="fill:#1f77b4;stroke:#1f77b4;" x="175.399074" xlink:href="#mc7680b70d3" y="52.440036"/>
     <use style="fill:#1f77b4;stroke:#1f77b4;" x="178.645619" xlink:href="#mc7680b70d3" y="52.573417"/>
     <use style="fill:#1f77b4;stroke:#1f77b4;" x="181.892165" xlink:href="#mc7680b70d3" y="53.055306"/>
     <use style="fill:#1f77b4;stroke:#1f77b4;" x="185.13871" xlink:href="#mc7680b70d3" y="54.029805"/>
     <use style="fill:#1f77b4;stroke:#1f77b4;" x="188.385256" xlink:href="#mc7680b70d3" y="55.45014"/>
     <use style="fill:#1f77b4;stroke:#1f77b4;" x="191.631801" xlink:href="#mc7680b70d3" y="57.141548"/>
     <use style="fill:#1f77b4;stroke:#1f77b4;" x="194.878347" xlink:href="#mc7680b70d3" y="59.532304"/>
     <use style="fill:#1f77b4;stroke:#1f77b4;" x="198.124892" xlink:href="#mc7680b70d3" y="62.243863"/>
     <use style="fill:#1f77b4;stroke:#1f77b4;" x="201.371437" xlink:href="#mc7680b70d3" y="65.162588"/>
     <use style="fill:#1f77b4;stroke:#1f77b4;" x="204.617983" xlink:href="#mc7680b70d3" y="67.577745"/>
     <use style="fill:#1f77b4;stroke:#1f77b4;" x="207.864528" xlink:href="#mc7680b70d3" y="70.452718"/>
     <use style="fill:#1f77b4;stroke:#1f77b4;" x="211.111074" xlink:href="#mc7680b70d3" y="73.507748"/>
     <use style="fill:#1f77b4;stroke:#1f77b4;" x="214.357619" xlink:href="#mc7680b70d3" y="75.781315"/>
     <use style="fill:#1f77b4;stroke:#1f77b4;" x="217.604165" xlink:href="#mc7680b70d3" y="77.511913"/>
     <use style="fill:#1f77b4;stroke:#1f77b4;" x="220.85071" xlink:href="#mc7680b70d3" y="78.21516"/>
     <use style="fill:#1f77b4;stroke:#1f77b4;" x="224.097256" xlink:href="#mc7680b70d3" y="77.804028"/>
     <use style="fill:#1f77b4;stroke:#1f77b4;" x="227.343801" xlink:href="#mc7680b70d3" y="73.252586"/>
     <use style="fill:#1f77b4;stroke:#1f77b4;" x="230.590347" xlink:href="#mc7680b70d3" y="66.935329"/>
     <use style="fill:#1f77b4;stroke:#1f77b4;" x="233.836892" xlink:href="#mc7680b70d3" y="62.177131"/>
     <use style="fill:#1f77b4;stroke:#1f77b4;" x="237.083437" xlink:href="#mc7680b70d3" y="55.013404"/>
     <use style="fill:#1f77b4;stroke:#1f77b4;" x="240.329983" xlink:href="#mc7680b70d3" y="45.723243"/>
     <use style="fill:#1f77b4;stroke:#1f77b4;" x="243.576528" xlink:href="#mc7680b70d3" y="38.045795"/>
     <use style="fill:#1f77b4;stroke:#1f77b4;" x="246.823074" xlink:href="#mc7680b70d3" y="33.406061"/>
     <use style="fill:#1f77b4;stroke:#1f77b4;" x="250.069619" xlink:href="#mc7680b70d3" y="29.501573"/>
     <use style="fill:#1f77b4;stroke:#1f77b4;" x="253.316165" xlink:href="#mc7680b70d3" y="35.314854"/>
     <use style="fill:#1f77b4;stroke:#1f77b4;" x="256.56271" xlink:href="#mc7680b70d3" y="43.343892"/>
     <use style="fill:#1f77b4;stroke:#1f77b4;" x="259.809256" xlink:href="#mc7680b70d3" y="58.933216"/>
     <use style="fill:#1f77b4;stroke:#1f77b4;" x="263.055801" xlink:href="#mc7680b70d3" y="69.997394"/>
     <use style="fill:#1f77b4;stroke:#1f77b4;" x="266.302347" xlink:href="#mc7680b70d3" y="68.496296"/>
     <use style="fill:#1f77b4;stroke:#1f77b4;" x="269.548892" xlink:href="#mc7680b70d3" y="71.70971"/>
     <use style="fill:#1f77b4;stroke:#1f77b4;" x="272.795437" xlink:href="#mc7680b70d3" y="61.200007"/>
     <use style="fill:#1f77b4;stroke:#1f77b4;" x="276.041983" xlink:href="#mc7680b70d3" y="50.25718"/>
     <use style="fill:#1f77b4;stroke:#1f77b4;" x="279.288528" xlink:href="#mc7680b70d3" y="45.105069"/>
     <use style="fill:#1f77b4;stroke:#1f77b4;" x="282.535074" xlink:href="#mc7680b70d3" y="42.372205"/>
     <use style="fill:#1f77b4;stroke:#1f77b4;" x="285.781619" xlink:href="#mc7680b70d3" y="37.844041"/>
     <use style="fill:#1f77b4;stroke:#1f77b4;" x="289.028165" xlink:href="#mc7680b70d3" y="27.379346"/>
     <use style="fill:#1f77b4;stroke:#1f77b4;" x="292.27471" xlink:href="#mc7680b70d3" y="25.250489"/>
     <use style="fill:#1f77b4;stroke:#1f77b4;" x="295.521256" xlink:href="#mc7680b70d3" y="38.500936"/>
     <use style="fill:#1f77b4;stroke:#1f77b4;" x="298.767801" xlink:href="#mc7680b70d3" y="51.228804"/>
     <use style="fill:#1f77b4;stroke:#1f77b4;" x="302.014347" xlink:href="#mc7680b70d3" y="67.109918"/>
     <use style="fill:#1f77b4;stroke:#1f77b4;" x="305.260892" xlink:href="#mc7680b70d3" y="79.591743"/>
     <use style="fill:#1f77b4;stroke:#1f77b4;" x="308.507437" xlink:href="#mc7680b70d3" y="83.897761"/>
     <use style="fill:#1f77b4;stroke:#1f77b4;" x="311.753983" xlink:href="#mc7680b70d3" y="75.883267"/>
     <use style="fill:#1f77b4;stroke:#1f77b4;" x="315.000528" xlink:href="#mc7680b70d3" y="65.17739"/>
     <use style="fill:#1f77b4;stroke:#1f77b4;" x="318.247074" xlink:href="#mc7680b70d3" y="59.011154"/>
     <use style="fill:#1f77b4;stroke:#1f77b4;" x="321.493619" xlink:href="#mc7680b70d3" y="50.75009"/>
     <use style="fill:#1f77b4;stroke:#1f77b4;" x="324.740165" xlink:href="#mc7680b70d3" y="40.569131"/>
     <use style="fill:#1f77b4;stroke:#1f77b4;" x="327.98671" xlink:href="#mc7680b70d3" y="37.828715"/>
     <use style="fill:#1f77b4;stroke:#1f77b4;" x="331.233256" xlink:href="#mc7680b70d3" y="35.47812"/>
     <use style="fill:#1f77b4;stroke:#1f77b4;" x="334.479801" xlink:href="#mc7680b70d3" y="42.147278"/>
     <use style="fill:#1f77b4;stroke:#1f77b4;" x="337.726347" xlink:href="#mc7680b70d3" y="49.422774"/>
     <use style="fill:#1f77b4;stroke:#1f77b4;" x="340.972892" xlink:href="#mc7680b70d3" y="53.807014"/>
     <use style="fill:#1f77b4;stroke:#1f77b4;" x="344.219437" xlink:href="#mc7680b70d3" y="55.696322"/>
     <use style="fill:#1f77b4;stroke:#1f77b4;" x="347.465983" xlink:href="#mc7680b70d3" y="54.351685"/>
     <use style="fill:#1f77b4;stroke:#1f77b4;" x="350.712528" xlink:href="#mc7680b70d3" y="54.578613"/>
     <use style="fill:#1f77b4;stroke:#1f77b4;" x="353.959074" xlink:href="#mc7680b70d3" y="52.55402"/>
     <use style="fill:#1f77b4;stroke:#1f77b4;" x="357.205619" xlink:href="#mc7680b70d3" y="40.559026"/>
     <use style="fill:#1f77b4;stroke:#1f77b4;" x="360.452165" xlink:href="#mc7680b70d3" y="31.148417"/>
     <use style="fill:#1f77b4;stroke:#1f77b4;" x="363.69871" xlink:href="#mc7680b70d3" y="30.721022"/>
     <use style="fill:#1f77b4;stroke:#1f77b4;" x="366.945256" xlink:href="#mc7680b70d3" y="38.242379"/>
     <use style="fill:#1f77b4;stroke:#1f77b4;" x="370.191801" xlink:href="#mc7680b70d3" y="49.605062"/>
     <use style="fill:#1f77b4;stroke:#1f77b4;" x="373.438347" xlink:href="#mc7680b70d3" y="59.59764"/>
     <use style="fill:#1f77b4;stroke:#1f77b4;" x="376.684892" xlink:href="#mc7680b70d3" y="68.706651"/>
     <use style="fill:#1f77b4;stroke:#1f77b4;" x="379.931438" xlink:href="#mc7680b70d3" y="73.709676"/>
     <use style="fill:#1f77b4;stroke:#1f77b4;" x="383.177983" xlink:href="#mc7680b70d3" y="76.965725"/>
     <use style="fill:#1f77b4;stroke:#1f77b4;" x="386.424528" xlink:href="#mc7680b70d3" y="79.961194"/>
     <use style="fill:#1f77b4;stroke:#1f77b4;" x="389.671074" xlink:href="#mc7680b70d3" y="80.995674"/>
     <use style="fill:#1f77b4;stroke:#1f77b4;" x="392.917619" xlink:href="#mc7680b70d3" y="78.394018"/>
     <use style="fill:#1f77b4;stroke:#1f77b4;" x="396.164165" xlink:href="#mc7680b70d3" y="76.36128"/>
     <use style="fill:#1f77b4;stroke:#1f77b4;" x="399.41071" xlink:href="#mc7680b70d3" y="75.249965"/>
    </g>
   </g>
   <g id="patch_3">
    <path d="M 58.523438 86.830125 
L 58.523438 22.318125 
" style="fill:none;stroke:#000000;stroke-linecap:square;stroke-linejoin:miter;stroke-width:0.8;"/>
   </g>
   <g id="patch_4">
    <path d="M 415.643438 86.830125 
L 415.643438 22.318125 
" style="fill:none;stroke:#000000;stroke-linecap:square;stroke-linejoin:miter;stroke-width:0.8;"/>
   </g>
   <g id="patch_5">
    <path d="M 58.523437 86.830125 
L 415.643437 86.830125 
" style="fill:none;stroke:#000000;stroke-linecap:square;stroke-linejoin:miter;stroke-width:0.8;"/>
   </g>
   <g id="patch_6">
    <path d="M 58.523437 22.318125 
L 415.643437 22.318125 
" style="fill:none;stroke:#000000;stroke-linecap:square;stroke-linejoin:miter;stroke-width:0.8;"/>
   </g>
   <g id="text_5">
    <!-- Model(skewed_gaussian) -->
    <defs>
     <path d="M 9.8125 72.90625 
L 24.515625 72.90625 
L 43.109375 23.296875 
L 61.8125 72.90625 
L 76.515625 72.90625 
L 76.515625 0 
L 66.890625 0 
L 66.890625 64.015625 
L 48.09375 14.015625 
L 38.1875 14.015625 
L 19.390625 64.015625 
L 19.390625 0 
L 9.8125 0 
z
" id="DejaVuSans-77"/>
     <path d="M 30.609375 48.390625 
Q 23.390625 48.390625 19.1875 42.75 
Q 14.984375 37.109375 14.984375 27.296875 
Q 14.984375 17.484375 19.15625 11.84375 
Q 23.34375 6.203125 30.609375 6.203125 
Q 37.796875 6.203125 41.984375 11.859375 
Q 46.1875 17.53125 46.1875 27.296875 
Q 46.1875 37.015625 41.984375 42.703125 
Q 37.796875 48.390625 30.609375 48.390625 
z
M 30.609375 56 
Q 42.328125 56 49.015625 48.375 
Q 55.71875 40.765625 55.71875 27.296875 
Q 55.71875 13.875 49.015625 6.21875 
Q 42.328125 -1.421875 30.609375 -1.421875 
Q 18.84375 -1.421875 12.171875 6.21875 
Q 5.515625 13.875 5.515625 27.296875 
Q 5.515625 40.765625 12.171875 48.375 
Q 18.84375 56 30.609375 56 
z
" id="DejaVuSans-111"/>
     <path d="M 31 75.875 
Q 24.46875 64.65625 21.28125 53.65625 
Q 18.109375 42.671875 18.109375 31.390625 
Q 18.109375 20.125 21.3125 9.0625 
Q 24.515625 -2 31 -13.1875 
L 23.1875 -13.1875 
Q 15.875 -1.703125 12.234375 9.375 
Q 8.59375 20.453125 8.59375 31.390625 
Q 8.59375 42.28125 12.203125 53.3125 
Q 15.828125 64.359375 23.1875 75.875 
z
" id="DejaVuSans-40"/>
     <path d="M 9.078125 75.984375 
L 18.109375 75.984375 
L 18.109375 31.109375 
L 44.921875 54.6875 
L 56.390625 54.6875 
L 27.390625 29.109375 
L 57.625 0 
L 45.90625 0 
L 18.109375 26.703125 
L 18.109375 0 
L 9.078125 0 
z
" id="DejaVuSans-107"/>
     <path d="M 4.203125 54.6875 
L 13.1875 54.6875 
L 24.421875 12.015625 
L 35.59375 54.6875 
L 46.1875 54.6875 
L 57.421875 12.015625 
L 68.609375 54.6875 
L 77.59375 54.6875 
L 63.28125 0 
L 52.6875 0 
L 40.921875 44.828125 
L 29.109375 0 
L 18.5 0 
z
" id="DejaVuSans-119"/>
     <path d="M 50.984375 -16.609375 
L 50.984375 -23.578125 
L -0.984375 -23.578125 
L -0.984375 -16.609375 
z
" id="DejaVuSans-95"/>
     <path d="M 45.40625 27.984375 
Q 45.40625 37.75 41.375 43.109375 
Q 37.359375 48.484375 30.078125 48.484375 
Q 22.859375 48.484375 18.828125 43.109375 
Q 14.796875 37.75 14.796875 27.984375 
Q 14.796875 18.265625 18.828125 12.890625 
Q 22.859375 7.515625 30.078125 7.515625 
Q 37.359375 7.515625 41.375 12.890625 
Q 45.40625 18.265625 45.40625 27.984375 
z
M 54.390625 6.78125 
Q 54.390625 -7.171875 48.1875 -13.984375 
Q 42 -20.796875 29.203125 -20.796875 
Q 24.46875 -20.796875 20.265625 -20.09375 
Q 16.0625 -19.390625 12.109375 -17.921875 
L 12.109375 -9.1875 
Q 16.0625 -11.328125 19.921875 -12.34375 
Q 23.78125 -13.375 27.78125 -13.375 
Q 36.625 -13.375 41.015625 -8.765625 
Q 45.40625 -4.15625 45.40625 5.171875 
L 45.40625 9.625 
Q 42.625 4.78125 38.28125 2.390625 
Q 33.9375 0 27.875 0 
Q 17.828125 0 11.671875 7.65625 
Q 5.515625 15.328125 5.515625 27.984375 
Q 5.515625 40.671875 11.671875 48.328125 
Q 17.828125 56 27.875 56 
Q 33.9375 56 38.28125 53.609375 
Q 42.625 51.21875 45.40625 46.390625 
L 45.40625 54.6875 
L 54.390625 54.6875 
z
" id="DejaVuSans-103"/>
     <path d="M 54.890625 33.015625 
L 54.890625 0 
L 45.90625 0 
L 45.90625 32.71875 
Q 45.90625 40.484375 42.875 44.328125 
Q 39.84375 48.1875 33.796875 48.1875 
Q 26.515625 48.1875 22.3125 43.546875 
Q 18.109375 38.921875 18.109375 30.90625 
L 18.109375 0 
L 9.078125 0 
L 9.078125 54.6875 
L 18.109375 54.6875 
L 18.109375 46.1875 
Q 21.34375 51.125 25.703125 53.5625 
Q 30.078125 56 35.796875 56 
Q 45.21875 56 50.046875 50.171875 
Q 54.890625 44.34375 54.890625 33.015625 
z
" id="DejaVuSans-110"/>
     <path d="M 8.015625 75.875 
L 15.828125 75.875 
Q 23.140625 64.359375 26.78125 53.3125 
Q 30.421875 42.28125 30.421875 31.390625 
Q 30.421875 20.453125 26.78125 9.375 
Q 23.140625 -1.703125 15.828125 -13.1875 
L 8.015625 -13.1875 
Q 14.5 -2 17.703125 9.0625 
Q 20.90625 20.125 20.90625 31.390625 
Q 20.90625 42.671875 17.703125 53.65625 
Q 14.5 64.65625 8.015625 75.875 
z
" id="DejaVuSans-41"/>
    </defs>
    <g transform="translate(162.2175 16.318125)scale(0.12 -0.12)">
     <use xlink:href="#DejaVuSans-77"/>
     <use x="86.279297" xlink:href="#DejaVuSans-111"/>
     <use x="147.460938" xlink:href="#DejaVuSans-100"/>
     <use x="210.9375" xlink:href="#DejaVuSans-101"/>
     <use x="272.460938" xlink:href="#DejaVuSans-108"/>
     <use x="300.244141" xlink:href="#DejaVuSans-40"/>
     <use x="339.257812" xlink:href="#DejaVuSans-115"/>
     <use x="391.357422" xlink:href="#DejaVuSans-107"/>
     <use x="445.642578" xlink:href="#DejaVuSans-101"/>
     <use x="507.166016" xlink:href="#DejaVuSans-119"/>
     <use x="588.953125" xlink:href="#DejaVuSans-101"/>
     <use x="650.476562" xlink:href="#DejaVuSans-100"/>
     <use x="713.953125" xlink:href="#DejaVuSans-95"/>
     <use x="763.953125" xlink:href="#DejaVuSans-103"/>
     <use x="827.429688" xlink:href="#DejaVuSans-97"/>
     <use x="888.708984" xlink:href="#DejaVuSans-117"/>
     <use x="952.087891" xlink:href="#DejaVuSans-115"/>
     <use x="1004.1875" xlink:href="#DejaVuSans-115"/>
     <use x="1056.287109" xlink:href="#DejaVuSans-105"/>
     <use x="1084.070312" xlink:href="#DejaVuSans-97"/>
     <use x="1145.349609" xlink:href="#DejaVuSans-110"/>
     <use x="1208.728516" xlink:href="#DejaVuSans-41"/>
    </g>
   </g>
   <g id="legend_1">
    <g id="patch_7">
     <path d="M 65.523438 44.99625 
L 142.351562 44.99625 
Q 144.351562 44.99625 144.351562 42.99625 
L 144.351562 29.318125 
Q 144.351562 27.318125 142.351562 27.318125 
L 65.523438 27.318125 
Q 63.523438 27.318125 63.523438 29.318125 
L 63.523438 42.99625 
Q 63.523438 44.99625 65.523438 44.99625 
z
" style="fill:#ffffff;opacity:0.8;stroke:#cccccc;stroke-linejoin:miter;"/>
    </g>
    <g id="line2d_15"/>
    <g id="line2d_16">
     <g>
      <use style="fill:#1f77b4;stroke:#1f77b4;" x="77.523438" xlink:href="#mc7680b70d3" y="35.416563"/>
     </g>
    </g>
    <g id="text_6">
     <!-- residuals -->
     <g transform="translate(95.523438 38.916563)scale(0.1 -0.1)">
      <use xlink:href="#DejaVuSans-114"/>
      <use x="38.863281" xlink:href="#DejaVuSans-101"/>
      <use x="100.386719" xlink:href="#DejaVuSans-115"/>
      <use x="152.486328" xlink:href="#DejaVuSans-105"/>
      <use x="180.269531" xlink:href="#DejaVuSans-100"/>
      <use x="243.746094" xlink:href="#DejaVuSans-117"/>
      <use x="307.125" xlink:href="#DejaVuSans-97"/>
      <use x="368.404297" xlink:href="#DejaVuSans-108"/>
      <use x="396.1875" xlink:href="#DejaVuSans-115"/>
     </g>
    </g>
   </g>
  </g>
  <g id="axes_2">
   <g id="patch_8">
    <path d="M 58.523438 377.134125 
L 415.643438 377.134125 
L 415.643438 119.086125 
L 58.523438 119.086125 
z
" style="fill:#ffffff;"/>
   </g>
   <g id="matplotlib.axis_3">
    <g id="xtick_10">
     <g id="line2d_17">
      <g>
       <use style="stroke:#000000;stroke-width:0.8;" x="74.756165" xlink:href="#m650711b48d" y="377.134125"/>
      </g>
     </g>
     <g id="text_7">
      <!-- 3.900 -->
      <defs>
       <path d="M 40.578125 39.3125 
Q 47.65625 37.796875 51.625 33 
Q 55.609375 28.21875 55.609375 21.1875 
Q 55.609375 10.40625 48.1875 4.484375 
Q 40.765625 -1.421875 27.09375 -1.421875 
Q 22.515625 -1.421875 17.65625 -0.515625 
Q 12.796875 0.390625 7.625 2.203125 
L 7.625 11.71875 
Q 11.71875 9.328125 16.59375 8.109375 
Q 21.484375 6.890625 26.8125 6.890625 
Q 36.078125 6.890625 40.9375 10.546875 
Q 45.796875 14.203125 45.796875 21.1875 
Q 45.796875 27.640625 41.28125 31.265625 
Q 36.765625 34.90625 28.71875 34.90625 
L 20.21875 34.90625 
L 20.21875 43.015625 
L 29.109375 43.015625 
Q 36.375 43.015625 40.234375 45.921875 
Q 44.09375 48.828125 44.09375 54.296875 
Q 44.09375 59.90625 40.109375 62.90625 
Q 36.140625 65.921875 28.71875 65.921875 
Q 24.65625 65.921875 20.015625 65.03125 
Q 15.375 64.15625 9.8125 62.3125 
L 9.8125 71.09375 
Q 15.4375 72.65625 20.34375 73.4375 
Q 25.25 74.21875 29.59375 74.21875 
Q 40.828125 74.21875 47.359375 69.109375 
Q 53.90625 64.015625 53.90625 55.328125 
Q 53.90625 49.265625 50.4375 45.09375 
Q 46.96875 40.921875 40.578125 39.3125 
z
" id="DejaVuSans-51"/>
       <path d="M 10.984375 1.515625 
L 10.984375 10.5 
Q 14.703125 8.734375 18.5 7.8125 
Q 22.3125 6.890625 25.984375 6.890625 
Q 35.75 6.890625 40.890625 13.453125 
Q 46.046875 20.015625 46.78125 33.40625 
Q 43.953125 29.203125 39.59375 26.953125 
Q 35.25 24.703125 29.984375 24.703125 
Q 19.046875 24.703125 12.671875 31.3125 
Q 6.296875 37.9375 6.296875 49.421875 
Q 6.296875 60.640625 12.9375 67.421875 
Q 19.578125 74.21875 30.609375 74.21875 
Q 43.265625 74.21875 49.921875 64.515625 
Q 56.59375 54.828125 56.59375 36.375 
Q 56.59375 19.140625 48.40625 8.859375 
Q 40.234375 -1.421875 26.421875 -1.421875 
Q 22.703125 -1.421875 18.890625 -0.6875 
Q 15.09375 0.046875 10.984375 1.515625 
z
M 30.609375 32.421875 
Q 37.25 32.421875 41.125 36.953125 
Q 45.015625 41.5 45.015625 49.421875 
Q 45.015625 57.28125 41.125 61.84375 
Q 37.25 66.40625 30.609375 66.40625 
Q 23.96875 66.40625 20.09375 61.84375 
Q 16.21875 57.28125 16.21875 49.421875 
Q 16.21875 41.5 20.09375 36.953125 
Q 23.96875 32.421875 30.609375 32.421875 
z
" id="DejaVuSans-57"/>
      </defs>
      <g transform="translate(60.442102 391.732562)scale(0.1 -0.1)">
       <use xlink:href="#DejaVuSans-51"/>
       <use x="63.623047" xlink:href="#DejaVuSans-46"/>
       <use x="95.410156" xlink:href="#DejaVuSans-57"/>
       <use x="159.033203" xlink:href="#DejaVuSans-48"/>
       <use x="222.65625" xlink:href="#DejaVuSans-48"/>
      </g>
     </g>
    </g>
    <g id="xtick_11">
     <g id="line2d_18">
      <g>
       <use style="stroke:#000000;stroke-width:0.8;" x="115.337983" xlink:href="#m650711b48d" y="377.134125"/>
      </g>
     </g>
     <g id="text_8">
      <!-- 3.925 -->
      <g transform="translate(101.02392 391.732562)scale(0.1 -0.1)">
       <use xlink:href="#DejaVuSans-51"/>
       <use x="63.623047" xlink:href="#DejaVuSans-46"/>
       <use x="95.410156" xlink:href="#DejaVuSans-57"/>
       <use x="159.033203" xlink:href="#DejaVuSans-50"/>
       <use x="222.65625" xlink:href="#DejaVuSans-53"/>
      </g>
     </g>
    </g>
    <g id="xtick_12">
     <g id="line2d_19">
      <g>
       <use style="stroke:#000000;stroke-width:0.8;" x="155.919801" xlink:href="#m650711b48d" y="377.134125"/>
      </g>
     </g>
     <g id="text_9">
      <!-- 3.950 -->
      <g transform="translate(141.605739 391.732562)scale(0.1 -0.1)">
       <use xlink:href="#DejaVuSans-51"/>
       <use x="63.623047" xlink:href="#DejaVuSans-46"/>
       <use x="95.410156" xlink:href="#DejaVuSans-57"/>
       <use x="159.033203" xlink:href="#DejaVuSans-53"/>
       <use x="222.65625" xlink:href="#DejaVuSans-48"/>
      </g>
     </g>
    </g>
    <g id="xtick_13">
     <g id="line2d_20">
      <g>
       <use style="stroke:#000000;stroke-width:0.8;" x="196.501619" xlink:href="#m650711b48d" y="377.134125"/>
      </g>
     </g>
     <g id="text_10">
      <!-- 3.975 -->
      <defs>
       <path d="M 8.203125 72.90625 
L 55.078125 72.90625 
L 55.078125 68.703125 
L 28.609375 0 
L 18.3125 0 
L 43.21875 64.59375 
L 8.203125 64.59375 
z
" id="DejaVuSans-55"/>
      </defs>
      <g transform="translate(182.187557 391.732562)scale(0.1 -0.1)">
       <use xlink:href="#DejaVuSans-51"/>
       <use x="63.623047" xlink:href="#DejaVuSans-46"/>
       <use x="95.410156" xlink:href="#DejaVuSans-57"/>
       <use x="159.033203" xlink:href="#DejaVuSans-55"/>
       <use x="222.65625" xlink:href="#DejaVuSans-53"/>
      </g>
     </g>
    </g>
    <g id="xtick_14">
     <g id="line2d_21">
      <g>
       <use style="stroke:#000000;stroke-width:0.8;" x="237.083437" xlink:href="#m650711b48d" y="377.134125"/>
      </g>
     </g>
     <g id="text_11">
      <!-- 4.000 -->
      <defs>
       <path d="M 37.796875 64.3125 
L 12.890625 25.390625 
L 37.796875 25.390625 
z
M 35.203125 72.90625 
L 47.609375 72.90625 
L 47.609375 25.390625 
L 58.015625 25.390625 
L 58.015625 17.1875 
L 47.609375 17.1875 
L 47.609375 0 
L 37.796875 0 
L 37.796875 17.1875 
L 4.890625 17.1875 
L 4.890625 26.703125 
z
" id="DejaVuSans-52"/>
      </defs>
      <g transform="translate(222.769375 391.732562)scale(0.1 -0.1)">
       <use xlink:href="#DejaVuSans-52"/>
       <use x="63.623047" xlink:href="#DejaVuSans-46"/>
       <use x="95.410156" xlink:href="#DejaVuSans-48"/>
       <use x="159.033203" xlink:href="#DejaVuSans-48"/>
       <use x="222.65625" xlink:href="#DejaVuSans-48"/>
      </g>
     </g>
    </g>
    <g id="xtick_15">
     <g id="line2d_22">
      <g>
       <use style="stroke:#000000;stroke-width:0.8;" x="277.665256" xlink:href="#m650711b48d" y="377.134125"/>
      </g>
     </g>
     <g id="text_12">
      <!-- 4.025 -->
      <g transform="translate(263.351193 391.732562)scale(0.1 -0.1)">
       <use xlink:href="#DejaVuSans-52"/>
       <use x="63.623047" xlink:href="#DejaVuSans-46"/>
       <use x="95.410156" xlink:href="#DejaVuSans-48"/>
       <use x="159.033203" xlink:href="#DejaVuSans-50"/>
       <use x="222.65625" xlink:href="#DejaVuSans-53"/>
      </g>
     </g>
    </g>
    <g id="xtick_16">
     <g id="line2d_23">
      <g>
       <use style="stroke:#000000;stroke-width:0.8;" x="318.247074" xlink:href="#m650711b48d" y="377.134125"/>
      </g>
     </g>
     <g id="text_13">
      <!-- 4.050 -->
      <g transform="translate(303.933011 391.732562)scale(0.1 -0.1)">
       <use xlink:href="#DejaVuSans-52"/>
       <use x="63.623047" xlink:href="#DejaVuSans-46"/>
       <use x="95.410156" xlink:href="#DejaVuSans-48"/>
       <use x="159.033203" xlink:href="#DejaVuSans-53"/>
       <use x="222.65625" xlink:href="#DejaVuSans-48"/>
      </g>
     </g>
    </g>
    <g id="xtick_17">
     <g id="line2d_24">
      <g>
       <use style="stroke:#000000;stroke-width:0.8;" x="358.828892" xlink:href="#m650711b48d" y="377.134125"/>
      </g>
     </g>
     <g id="text_14">
      <!-- 4.075 -->
      <g transform="translate(344.51483 391.732562)scale(0.1 -0.1)">
       <use xlink:href="#DejaVuSans-52"/>
       <use x="63.623047" xlink:href="#DejaVuSans-46"/>
       <use x="95.410156" xlink:href="#DejaVuSans-48"/>
       <use x="159.033203" xlink:href="#DejaVuSans-55"/>
       <use x="222.65625" xlink:href="#DejaVuSans-53"/>
      </g>
     </g>
    </g>
    <g id="xtick_18">
     <g id="line2d_25">
      <g>
       <use style="stroke:#000000;stroke-width:0.8;" x="399.41071" xlink:href="#m650711b48d" y="377.134125"/>
      </g>
     </g>
     <g id="text_15">
      <!-- 4.100 -->
      <defs>
       <path d="M 12.40625 8.296875 
L 28.515625 8.296875 
L 28.515625 63.921875 
L 10.984375 60.40625 
L 10.984375 69.390625 
L 28.421875 72.90625 
L 38.28125 72.90625 
L 38.28125 8.296875 
L 54.390625 8.296875 
L 54.390625 0 
L 12.40625 0 
z
" id="DejaVuSans-49"/>
      </defs>
      <g transform="translate(385.096648 391.732562)scale(0.1 -0.1)">
       <use xlink:href="#DejaVuSans-52"/>
       <use x="63.623047" xlink:href="#DejaVuSans-46"/>
       <use x="95.410156" xlink:href="#DejaVuSans-49"/>
       <use x="159.033203" xlink:href="#DejaVuSans-48"/>
       <use x="222.65625" xlink:href="#DejaVuSans-48"/>
      </g>
     </g>
    </g>
    <g id="text_16">
     <!-- x -->
     <defs>
      <path d="M 54.890625 54.6875 
L 35.109375 28.078125 
L 55.90625 0 
L 45.3125 0 
L 29.390625 21.484375 
L 13.484375 0 
L 2.875 0 
L 24.125 28.609375 
L 4.6875 54.6875 
L 15.28125 54.6875 
L 29.78125 35.203125 
L 44.28125 54.6875 
z
" id="DejaVuSans-120"/>
     </defs>
     <g transform="translate(234.124063 405.410687)scale(0.1 -0.1)">
      <use xlink:href="#DejaVuSans-120"/>
     </g>
    </g>
   </g>
   <g id="matplotlib.axis_4">
    <g id="ytick_4">
     <g id="line2d_26">
      <g>
       <use style="stroke:#000000;stroke-width:0.8;" x="58.523438" xlink:href="#m110d8ee265" y="365.40467"/>
      </g>
     </g>
     <g id="text_17">
      <!-- 0 -->
      <g transform="translate(45.160938 369.203889)scale(0.1 -0.1)">
       <use xlink:href="#DejaVuSans-48"/>
      </g>
     </g>
    </g>
    <g id="ytick_5">
     <g id="line2d_27">
      <g>
       <use style="stroke:#000000;stroke-width:0.8;" x="58.523438" xlink:href="#m110d8ee265" y="334.968707"/>
      </g>
     </g>
     <g id="text_18">
      <!-- 2 -->
      <g transform="translate(45.160938 338.767926)scale(0.1 -0.1)">
       <use xlink:href="#DejaVuSans-50"/>
      </g>
     </g>
    </g>
    <g id="ytick_6">
     <g id="line2d_28">
      <g>
       <use style="stroke:#000000;stroke-width:0.8;" x="58.523438" xlink:href="#m110d8ee265" y="304.532743"/>
      </g>
     </g>
     <g id="text_19">
      <!-- 4 -->
      <g transform="translate(45.160938 308.331962)scale(0.1 -0.1)">
       <use xlink:href="#DejaVuSans-52"/>
      </g>
     </g>
    </g>
    <g id="ytick_7">
     <g id="line2d_29">
      <g>
       <use style="stroke:#000000;stroke-width:0.8;" x="58.523438" xlink:href="#m110d8ee265" y="274.09678"/>
      </g>
     </g>
     <g id="text_20">
      <!-- 6 -->
      <defs>
       <path d="M 33.015625 40.375 
Q 26.375 40.375 22.484375 35.828125 
Q 18.609375 31.296875 18.609375 23.390625 
Q 18.609375 15.53125 22.484375 10.953125 
Q 26.375 6.390625 33.015625 6.390625 
Q 39.65625 6.390625 43.53125 10.953125 
Q 47.40625 15.53125 47.40625 23.390625 
Q 47.40625 31.296875 43.53125 35.828125 
Q 39.65625 40.375 33.015625 40.375 
z
M 52.59375 71.296875 
L 52.59375 62.3125 
Q 48.875 64.0625 45.09375 64.984375 
Q 41.3125 65.921875 37.59375 65.921875 
Q 27.828125 65.921875 22.671875 59.328125 
Q 17.53125 52.734375 16.796875 39.40625 
Q 19.671875 43.65625 24.015625 45.921875 
Q 28.375 48.1875 33.59375 48.1875 
Q 44.578125 48.1875 50.953125 41.515625 
Q 57.328125 34.859375 57.328125 23.390625 
Q 57.328125 12.15625 50.6875 5.359375 
Q 44.046875 -1.421875 33.015625 -1.421875 
Q 20.359375 -1.421875 13.671875 8.265625 
Q 6.984375 17.96875 6.984375 36.375 
Q 6.984375 53.65625 15.1875 63.9375 
Q 23.390625 74.21875 37.203125 74.21875 
Q 40.921875 74.21875 44.703125 73.484375 
Q 48.484375 72.75 52.59375 71.296875 
z
" id="DejaVuSans-54"/>
      </defs>
      <g transform="translate(45.160938 277.895998)scale(0.1 -0.1)">
       <use xlink:href="#DejaVuSans-54"/>
      </g>
     </g>
    </g>
    <g id="ytick_8">
     <g id="line2d_30">
      <g>
       <use style="stroke:#000000;stroke-width:0.8;" x="58.523438" xlink:href="#m110d8ee265" y="243.660816"/>
      </g>
     </g>
     <g id="text_21">
      <!-- 8 -->
      <defs>
       <path d="M 31.78125 34.625 
Q 24.75 34.625 20.71875 30.859375 
Q 16.703125 27.09375 16.703125 20.515625 
Q 16.703125 13.921875 20.71875 10.15625 
Q 24.75 6.390625 31.78125 6.390625 
Q 38.8125 6.390625 42.859375 10.171875 
Q 46.921875 13.96875 46.921875 20.515625 
Q 46.921875 27.09375 42.890625 30.859375 
Q 38.875 34.625 31.78125 34.625 
z
M 21.921875 38.8125 
Q 15.578125 40.375 12.03125 44.71875 
Q 8.5 49.078125 8.5 55.328125 
Q 8.5 64.0625 14.71875 69.140625 
Q 20.953125 74.21875 31.78125 74.21875 
Q 42.671875 74.21875 48.875 69.140625 
Q 55.078125 64.0625 55.078125 55.328125 
Q 55.078125 49.078125 51.53125 44.71875 
Q 48 40.375 41.703125 38.8125 
Q 48.828125 37.15625 52.796875 32.3125 
Q 56.78125 27.484375 56.78125 20.515625 
Q 56.78125 9.90625 50.3125 4.234375 
Q 43.84375 -1.421875 31.78125 -1.421875 
Q 19.734375 -1.421875 13.25 4.234375 
Q 6.78125 9.90625 6.78125 20.515625 
Q 6.78125 27.484375 10.78125 32.3125 
Q 14.796875 37.15625 21.921875 38.8125 
z
M 18.3125 54.390625 
Q 18.3125 48.734375 21.84375 45.5625 
Q 25.390625 42.390625 31.78125 42.390625 
Q 38.140625 42.390625 41.71875 45.5625 
Q 45.3125 48.734375 45.3125 54.390625 
Q 45.3125 60.0625 41.71875 63.234375 
Q 38.140625 66.40625 31.78125 66.40625 
Q 25.390625 66.40625 21.84375 63.234375 
Q 18.3125 60.0625 18.3125 54.390625 
z
" id="DejaVuSans-56"/>
      </defs>
      <g transform="translate(45.160938 247.460035)scale(0.1 -0.1)">
       <use xlink:href="#DejaVuSans-56"/>
      </g>
     </g>
    </g>
    <g id="ytick_9">
     <g id="line2d_31">
      <g>
       <use style="stroke:#000000;stroke-width:0.8;" x="58.523438" xlink:href="#m110d8ee265" y="213.224852"/>
      </g>
     </g>
     <g id="text_22">
      <!-- 10 -->
      <g transform="translate(38.798438 217.024071)scale(0.1 -0.1)">
       <use xlink:href="#DejaVuSans-49"/>
       <use x="63.623047" xlink:href="#DejaVuSans-48"/>
      </g>
     </g>
    </g>
    <g id="ytick_10">
     <g id="line2d_32">
      <g>
       <use style="stroke:#000000;stroke-width:0.8;" x="58.523438" xlink:href="#m110d8ee265" y="182.788889"/>
      </g>
     </g>
     <g id="text_23">
      <!-- 12 -->
      <g transform="translate(38.798438 186.588107)scale(0.1 -0.1)">
       <use xlink:href="#DejaVuSans-49"/>
       <use x="63.623047" xlink:href="#DejaVuSans-50"/>
      </g>
     </g>
    </g>
    <g id="ytick_11">
     <g id="line2d_33">
      <g>
       <use style="stroke:#000000;stroke-width:0.8;" x="58.523438" xlink:href="#m110d8ee265" y="152.352925"/>
      </g>
     </g>
     <g id="text_24">
      <!-- 14 -->
      <g transform="translate(38.798438 156.152144)scale(0.1 -0.1)">
       <use xlink:href="#DejaVuSans-49"/>
       <use x="63.623047" xlink:href="#DejaVuSans-52"/>
      </g>
     </g>
    </g>
    <g id="ytick_12">
     <g id="line2d_34">
      <g>
       <use style="stroke:#000000;stroke-width:0.8;" x="58.523438" xlink:href="#m110d8ee265" y="121.916961"/>
      </g>
     </g>
     <g id="text_25">
      <!-- 16 -->
      <g transform="translate(38.798438 125.71618)scale(0.1 -0.1)">
       <use xlink:href="#DejaVuSans-49"/>
       <use x="63.623047" xlink:href="#DejaVuSans-54"/>
      </g>
     </g>
    </g>
    <g id="text_26">
     <!-- y -->
     <defs>
      <path d="M 32.171875 -5.078125 
Q 28.375 -14.84375 24.75 -17.8125 
Q 21.140625 -20.796875 15.09375 -20.796875 
L 7.90625 -20.796875 
L 7.90625 -13.28125 
L 13.1875 -13.28125 
Q 16.890625 -13.28125 18.9375 -11.515625 
Q 21 -9.765625 23.484375 -3.21875 
L 25.09375 0.875 
L 2.984375 54.6875 
L 12.5 54.6875 
L 29.59375 11.921875 
L 46.6875 54.6875 
L 56.203125 54.6875 
z
" id="DejaVuSans-121"/>
     </defs>
     <g transform="translate(32.71875 251.0695)rotate(-90)scale(0.1 -0.1)">
      <use xlink:href="#DejaVuSans-121"/>
     </g>
    </g>
   </g>
   <g id="line2d_35">
    <g clip-path="url(#p53b1ffa42d)">
     <use style="fill:#1f77b4;stroke:#1f77b4;" x="74.756165" xlink:href="#mc7680b70d3" y="365.388885"/>
     <use style="fill:#1f77b4;stroke:#1f77b4;" x="78.00271" xlink:href="#mc7680b70d3" y="365.388885"/>
     <use style="fill:#1f77b4;stroke:#1f77b4;" x="81.249256" xlink:href="#mc7680b70d3" y="365.388885"/>
     <use style="fill:#1f77b4;stroke:#1f77b4;" x="84.495801" xlink:href="#mc7680b70d3" y="365.391969"/>
     <use style="fill:#1f77b4;stroke:#1f77b4;" x="87.742347" xlink:href="#mc7680b70d3" y="365.390596"/>
     <use style="fill:#1f77b4;stroke:#1f77b4;" x="90.988892" xlink:href="#mc7680b70d3" y="365.388791"/>
     <use style="fill:#1f77b4;stroke:#1f77b4;" x="94.235437" xlink:href="#mc7680b70d3" y="365.388308"/>
     <use style="fill:#1f77b4;stroke:#1f77b4;" x="97.481983" xlink:href="#mc7680b70d3" y="365.39014"/>
     <use style="fill:#1f77b4;stroke:#1f77b4;" x="100.728528" xlink:href="#mc7680b70d3" y="365.388251"/>
     <use style="fill:#1f77b4;stroke:#1f77b4;" x="103.975074" xlink:href="#mc7680b70d3" y="365.386752"/>
     <use style="fill:#1f77b4;stroke:#1f77b4;" x="107.221619" xlink:href="#mc7680b70d3" y="365.386556"/>
     <use style="fill:#1f77b4;stroke:#1f77b4;" x="110.468165" xlink:href="#mc7680b70d3" y="365.38514"/>
     <use style="fill:#1f77b4;stroke:#1f77b4;" x="113.71471" xlink:href="#mc7680b70d3" y="365.388187"/>
     <use style="fill:#1f77b4;stroke:#1f77b4;" x="116.961256" xlink:href="#mc7680b70d3" y="365.388357"/>
     <use style="fill:#1f77b4;stroke:#1f77b4;" x="120.207801" xlink:href="#mc7680b70d3" y="365.38307"/>
     <use style="fill:#1f77b4;stroke:#1f77b4;" x="123.454347" xlink:href="#mc7680b70d3" y="365.384723"/>
     <use style="fill:#1f77b4;stroke:#1f77b4;" x="126.700892" xlink:href="#mc7680b70d3" y="365.384827"/>
     <use style="fill:#1f77b4;stroke:#1f77b4;" x="129.947437" xlink:href="#mc7680b70d3" y="365.384455"/>
     <use style="fill:#1f77b4;stroke:#1f77b4;" x="133.193983" xlink:href="#mc7680b70d3" y="365.38369"/>
     <use style="fill:#1f77b4;stroke:#1f77b4;" x="136.440528" xlink:href="#mc7680b70d3" y="365.383838"/>
     <use style="fill:#1f77b4;stroke:#1f77b4;" x="139.687074" xlink:href="#mc7680b70d3" y="365.380503"/>
     <use style="fill:#1f77b4;stroke:#1f77b4;" x="142.933619" xlink:href="#mc7680b70d3" y="365.376883"/>
     <use style="fill:#1f77b4;stroke:#1f77b4;" x="146.180165" xlink:href="#mc7680b70d3" y="365.378597"/>
     <use style="fill:#1f77b4;stroke:#1f77b4;" x="149.42671" xlink:href="#mc7680b70d3" y="365.376479"/>
     <use style="fill:#1f77b4;stroke:#1f77b4;" x="152.673256" xlink:href="#mc7680b70d3" y="365.374173"/>
     <use style="fill:#1f77b4;stroke:#1f77b4;" x="155.919801" xlink:href="#mc7680b70d3" y="365.376079"/>
     <use style="fill:#1f77b4;stroke:#1f77b4;" x="159.166347" xlink:href="#mc7680b70d3" y="365.375311"/>
     <use style="fill:#1f77b4;stroke:#1f77b4;" x="162.412892" xlink:href="#mc7680b70d3" y="365.367783"/>
     <use style="fill:#1f77b4;stroke:#1f77b4;" x="165.659437" xlink:href="#mc7680b70d3" y="365.361459"/>
     <use style="fill:#1f77b4;stroke:#1f77b4;" x="168.905983" xlink:href="#mc7680b70d3" y="365.359097"/>
     <use style="fill:#1f77b4;stroke:#1f77b4;" x="172.152528" xlink:href="#mc7680b70d3" y="365.354948"/>
     <use style="fill:#1f77b4;stroke:#1f77b4;" x="175.399074" xlink:href="#mc7680b70d3" y="365.336957"/>
     <use style="fill:#1f77b4;stroke:#1f77b4;" x="178.645619" xlink:href="#mc7680b70d3" y="365.282229"/>
     <use style="fill:#1f77b4;stroke:#1f77b4;" x="181.892165" xlink:href="#mc7680b70d3" y="365.156747"/>
     <use style="fill:#1f77b4;stroke:#1f77b4;" x="185.13871" xlink:href="#mc7680b70d3" y="364.931504"/>
     <use style="fill:#1f77b4;stroke:#1f77b4;" x="188.385256" xlink:href="#mc7680b70d3" y="364.606065"/>
     <use style="fill:#1f77b4;stroke:#1f77b4;" x="191.631801" xlink:href="#mc7680b70d3" y="364.197958"/>
     <use style="fill:#1f77b4;stroke:#1f77b4;" x="194.878347" xlink:href="#mc7680b70d3" y="363.624927"/>
     <use style="fill:#1f77b4;stroke:#1f77b4;" x="198.124892" xlink:href="#mc7680b70d3" y="362.930102"/>
     <use style="fill:#1f77b4;stroke:#1f77b4;" x="201.371437" xlink:href="#mc7680b70d3" y="362.109519"/>
     <use style="fill:#1f77b4;stroke:#1f77b4;" x="204.617983" xlink:href="#mc7680b70d3" y="361.249408"/>
     <use style="fill:#1f77b4;stroke:#1f77b4;" x="207.864528" xlink:href="#mc7680b70d3" y="360.161518"/>
     <use style="fill:#1f77b4;stroke:#1f77b4;" x="211.111074" xlink:href="#mc7680b70d3" y="358.849738"/>
     <use style="fill:#1f77b4;stroke:#1f77b4;" x="214.357619" xlink:href="#mc7680b70d3" y="357.419546"/>
     <use style="fill:#1f77b4;stroke:#1f77b4;" x="217.604165" xlink:href="#mc7680b70d3" y="355.776157"/>
     <use style="fill:#1f77b4;stroke:#1f77b4;" x="220.85071" xlink:href="#mc7680b70d3" y="353.932542"/>
     <use style="fill:#1f77b4;stroke:#1f77b4;" x="224.097256" xlink:href="#mc7680b70d3" y="351.830365"/>
     <use style="fill:#1f77b4;stroke:#1f77b4;" x="227.343801" xlink:href="#mc7680b70d3" y="349.875454"/>
     <use style="fill:#1f77b4;stroke:#1f77b4;" x="230.590347" xlink:href="#mc7680b70d3" y="347.603417"/>
     <use style="fill:#1f77b4;stroke:#1f77b4;" x="233.836892" xlink:href="#mc7680b70d3" y="344.394984"/>
     <use style="fill:#1f77b4;stroke:#1f77b4;" x="237.083437" xlink:href="#mc7680b70d3" y="340.799301"/>
     <use style="fill:#1f77b4;stroke:#1f77b4;" x="240.329983" xlink:href="#mc7680b70d3" y="336.690242"/>
     <use style="fill:#1f77b4;stroke:#1f77b4;" x="243.576528" xlink:href="#mc7680b70d3" y="331.396696"/>
     <use style="fill:#1f77b4;stroke:#1f77b4;" x="246.823074" xlink:href="#mc7680b70d3" y="324.632992"/>
     <use style="fill:#1f77b4;stroke:#1f77b4;" x="250.069619" xlink:href="#mc7680b70d3" y="316.731048"/>
     <use style="fill:#1f77b4;stroke:#1f77b4;" x="253.316165" xlink:href="#mc7680b70d3" y="306.241064"/>
     <use style="fill:#1f77b4;stroke:#1f77b4;" x="256.56271" xlink:href="#mc7680b70d3" y="294.385954"/>
     <use style="fill:#1f77b4;stroke:#1f77b4;" x="259.809256" xlink:href="#mc7680b70d3" y="280.3671"/>
     <use style="fill:#1f77b4;stroke:#1f77b4;" x="263.055801" xlink:href="#mc7680b70d3" y="266.218596"/>
     <use style="fill:#1f77b4;stroke:#1f77b4;" x="266.302347" xlink:href="#mc7680b70d3" y="253.368863"/>
     <use style="fill:#1f77b4;stroke:#1f77b4;" x="269.548892" xlink:href="#mc7680b70d3" y="239.232468"/>
     <use style="fill:#1f77b4;stroke:#1f77b4;" x="272.795437" xlink:href="#mc7680b70d3" y="226.986745"/>
     <use style="fill:#1f77b4;stroke:#1f77b4;" x="276.041983" xlink:href="#mc7680b70d3" y="214.762078"/>
     <use style="fill:#1f77b4;stroke:#1f77b4;" x="279.288528" xlink:href="#mc7680b70d3" y="201.850089"/>
     <use style="fill:#1f77b4;stroke:#1f77b4;" x="282.535074" xlink:href="#mc7680b70d3" y="189.099678"/>
     <use style="fill:#1f77b4;stroke:#1f77b4;" x="285.781619" xlink:href="#mc7680b70d3" y="177.503783"/>
     <use style="fill:#1f77b4;stroke:#1f77b4;" x="289.028165" xlink:href="#mc7680b70d3" y="168.040103"/>
     <use style="fill:#1f77b4;stroke:#1f77b4;" x="292.27471" xlink:href="#mc7680b70d3" y="158.719659"/>
     <use style="fill:#1f77b4;stroke:#1f77b4;" x="295.521256" xlink:href="#mc7680b70d3" y="148.681766"/>
     <use style="fill:#1f77b4;stroke:#1f77b4;" x="298.767801" xlink:href="#mc7680b70d3" y="140.699628"/>
     <use style="fill:#1f77b4;stroke:#1f77b4;" x="302.014347" xlink:href="#mc7680b70d3" y="134.357114"/>
     <use style="fill:#1f77b4;stroke:#1f77b4;" x="305.260892" xlink:href="#mc7680b70d3" y="130.81558"/>
     <use style="fill:#1f77b4;stroke:#1f77b4;" x="308.507437" xlink:href="#mc7680b70d3" y="130.885225"/>
     <use style="fill:#1f77b4;stroke:#1f77b4;" x="311.753983" xlink:href="#mc7680b70d3" y="135.206224"/>
     <use style="fill:#1f77b4;stroke:#1f77b4;" x="315.000528" xlink:href="#mc7680b70d3" y="142.14451"/>
     <use style="fill:#1f77b4;stroke:#1f77b4;" x="318.247074" xlink:href="#mc7680b70d3" y="150.387217"/>
     <use style="fill:#1f77b4;stroke:#1f77b4;" x="321.493619" xlink:href="#mc7680b70d3" y="160.787427"/>
     <use style="fill:#1f77b4;stroke:#1f77b4;" x="324.740165" xlink:href="#mc7680b70d3" y="173.061954"/>
     <use style="fill:#1f77b4;stroke:#1f77b4;" x="327.98671" xlink:href="#mc7680b70d3" y="185.422559"/>
     <use style="fill:#1f77b4;stroke:#1f77b4;" x="331.233256" xlink:href="#mc7680b70d3" y="198.689677"/>
     <use style="fill:#1f77b4;stroke:#1f77b4;" x="334.479801" xlink:href="#mc7680b70d3" y="211.164224"/>
     <use style="fill:#1f77b4;stroke:#1f77b4;" x="337.726347" xlink:href="#mc7680b70d3" y="223.882892"/>
     <use style="fill:#1f77b4;stroke:#1f77b4;" x="340.972892" xlink:href="#mc7680b70d3" y="237.111541"/>
     <use style="fill:#1f77b4;stroke:#1f77b4;" x="344.219437" xlink:href="#mc7680b70d3" y="250.518577"/>
     <use style="fill:#1f77b4;stroke:#1f77b4;" x="347.465983" xlink:href="#mc7680b70d3" y="263.988183"/>
     <use style="fill:#1f77b4;stroke:#1f77b4;" x="350.712528" xlink:href="#mc7680b70d3" y="276.555288"/>
     <use style="fill:#1f77b4;stroke:#1f77b4;" x="353.959074" xlink:href="#mc7680b70d3" y="288.678953"/>
     <use style="fill:#1f77b4;stroke:#1f77b4;" x="357.205619" xlink:href="#mc7680b70d3" y="301.484603"/>
     <use style="fill:#1f77b4;stroke:#1f77b4;" x="360.452165" xlink:href="#mc7680b70d3" y="312.890341"/>
     <use style="fill:#1f77b4;stroke:#1f77b4;" x="363.69871" xlink:href="#mc7680b70d3" y="321.837986"/>
     <use style="fill:#1f77b4;stroke:#1f77b4;" x="366.945256" xlink:href="#mc7680b70d3" y="328.493263"/>
     <use style="fill:#1f77b4;stroke:#1f77b4;" x="370.191801" xlink:href="#mc7680b70d3" y="333.541981"/>
     <use style="fill:#1f77b4;stroke:#1f77b4;" x="373.438347" xlink:href="#mc7680b70d3" y="337.86894"/>
     <use style="fill:#1f77b4;stroke:#1f77b4;" x="376.684892" xlink:href="#mc7680b70d3" y="341.462509"/>
     <use style="fill:#1f77b4;stroke:#1f77b4;" x="379.931438" xlink:href="#mc7680b70d3" y="344.916298"/>
     <use style="fill:#1f77b4;stroke:#1f77b4;" x="383.177983" xlink:href="#mc7680b70d3" y="347.93589"/>
     <use style="fill:#1f77b4;stroke:#1f77b4;" x="386.424528" xlink:href="#mc7680b70d3" y="350.368635"/>
     <use style="fill:#1f77b4;stroke:#1f77b4;" x="389.671074" xlink:href="#mc7680b70d3" y="352.570979"/>
     <use style="fill:#1f77b4;stroke:#1f77b4;" x="392.917619" xlink:href="#mc7680b70d3" y="354.891227"/>
     <use style="fill:#1f77b4;stroke:#1f77b4;" x="396.164165" xlink:href="#mc7680b70d3" y="356.729657"/>
     <use style="fill:#1f77b4;stroke:#1f77b4;" x="399.41071" xlink:href="#mc7680b70d3" y="358.096591"/>
    </g>
   </g>
   <g id="line2d_36">
    <path clip-path="url(#p53b1ffa42d)" d="M 74.756165 365.40467 
L 78.00271 365.40467 
L 81.249256 365.40467 
L 84.495801 365.40467 
L 87.742347 365.40467 
L 90.988892 365.40467 
L 94.235437 365.40467 
L 97.481983 365.40467 
L 100.728528 365.40467 
L 103.975074 365.40467 
L 107.221619 365.404669 
L 110.468165 365.404668 
L 113.71471 365.404666 
L 116.961256 365.404662 
L 120.207801 365.404655 
L 123.454347 365.404643 
L 126.700892 365.404622 
L 129.947437 365.404585 
L 133.193983 365.404524 
L 136.440528 365.404421 
L 139.687074 365.40425 
L 142.933619 365.403968 
L 146.180165 365.403509 
L 149.42671 365.40277 
L 152.673256 365.401592 
L 155.919801 365.399736 
L 159.166347 365.396839 
L 162.412892 365.392368 
L 165.659437 365.385541 
L 168.905983 365.375225 
L 172.152528 365.359806 
L 175.399074 365.337004 
L 178.645619 365.303645 
L 181.892165 365.255365 
L 185.13871 365.186245 
L 188.385256 365.088355 
L 191.631801 364.951225 
L 194.878347 364.761213 
L 198.124892 364.500802 
L 201.371437 364.147822 
L 204.617983 363.674639 
L 207.864528 363.047343 
L 211.111074 362.225003 
L 214.357619 361.159055 
L 217.604165 359.792922 
L 220.85071 358.061973 
L 224.097256 355.89393 
L 227.343801 353.20984 
L 230.590347 349.925727 
L 233.836892 345.954992 
L 237.083437 341.211623 
L 240.329983 335.614205 
L 243.576528 329.090669 
L 246.823074 321.583642 
L 250.069619 313.056168 
L 253.316165 303.497518 
L 256.56271 292.928725 
L 259.809256 281.407407 
L 263.055801 269.031475 
L 266.302347 255.941253 
L 269.548892 242.319674 
L 272.795437 228.39021 
L 276.041983 214.412413 
L 279.288528 200.675015 
L 282.535074 187.486777 
L 285.781619 175.165433 
L 289.028165 164.025225 
L 292.27471 154.36372 
L 295.521256 146.448656 
L 298.767801 140.505626 
L 302.014347 136.707395 
L 305.260892 135.16555 
L 308.507437 135.925055 
L 311.753983 138.962067 
L 315.000528 144.185185 
L 318.247074 151.440011 
L 321.493619 160.516731 
L 324.740165 171.160186 
L 327.98671 183.081754 
L 331.233256 195.972288 
L 334.479801 209.515288 
L 337.726347 223.399549 
L 340.972892 237.330589 
L 344.219437 251.040307 
L 347.465983 264.294492 
L 350.712528 276.897953 
L 353.959074 288.697261 
L 357.205619 299.581216 
L 360.452165 309.479298 
L 363.69871 318.358471 
L 366.945256 326.21873 
L 370.191801 333.087843 
L 373.438347 339.015694 
L 376.684892 344.0686 
L 379.931438 348.323914 
L 383.177983 351.865151 
L 386.424528 354.777795 
L 389.671074 357.145871 
L 392.917619 359.049313 
L 396.164165 360.562082 
L 399.41071 361.750974 
" style="fill:none;stroke:#ff7f0e;stroke-linecap:square;stroke-width:1.5;"/>
   </g>
   <g id="patch_9">
    <path d="M 58.523438 377.134125 
L 58.523438 119.086125 
" style="fill:none;stroke:#000000;stroke-linecap:square;stroke-linejoin:miter;stroke-width:0.8;"/>
   </g>
   <g id="patch_10">
    <path d="M 415.643438 377.134125 
L 415.643438 119.086125 
" style="fill:none;stroke:#000000;stroke-linecap:square;stroke-linejoin:miter;stroke-width:0.8;"/>
   </g>
   <g id="patch_11">
    <path d="M 58.523437 377.134125 
L 415.643437 377.134125 
" style="fill:none;stroke:#000000;stroke-linecap:square;stroke-linejoin:miter;stroke-width:0.8;"/>
   </g>
   <g id="patch_12">
    <path d="M 58.523437 119.086125 
L 415.643437 119.086125 
" style="fill:none;stroke:#000000;stroke-linecap:square;stroke-linejoin:miter;stroke-width:0.8;"/>
   </g>
   <g id="legend_2">
    <g id="patch_13">
     <path d="M 341.185625 156.442375 
L 408.643438 156.442375 
Q 410.643438 156.442375 410.643438 154.442375 
L 410.643438 126.086125 
Q 410.643438 124.086125 408.643438 124.086125 
L 341.185625 124.086125 
Q 339.185625 124.086125 339.185625 126.086125 
L 339.185625 154.442375 
Q 339.185625 156.442375 341.185625 156.442375 
z
" style="fill:#ffffff;opacity:0.8;stroke:#cccccc;stroke-linejoin:miter;"/>
    </g>
    <g id="line2d_37"/>
    <g id="line2d_38">
     <g>
      <use style="fill:#1f77b4;stroke:#1f77b4;" x="353.185625" xlink:href="#mc7680b70d3" y="132.184563"/>
     </g>
    </g>
    <g id="text_27">
     <!-- data -->
     <defs>
      <path d="M 18.3125 70.21875 
L 18.3125 54.6875 
L 36.8125 54.6875 
L 36.8125 47.703125 
L 18.3125 47.703125 
L 18.3125 18.015625 
Q 18.3125 11.328125 20.140625 9.421875 
Q 21.96875 7.515625 27.59375 7.515625 
L 36.8125 7.515625 
L 36.8125 0 
L 27.59375 0 
Q 17.1875 0 13.234375 3.875 
Q 9.28125 7.765625 9.28125 18.015625 
L 9.28125 47.703125 
L 2.6875 47.703125 
L 2.6875 54.6875 
L 9.28125 54.6875 
L 9.28125 70.21875 
z
" id="DejaVuSans-116"/>
     </defs>
     <g transform="translate(371.185625 135.684563)scale(0.1 -0.1)">
      <use xlink:href="#DejaVuSans-100"/>
      <use x="63.476562" xlink:href="#DejaVuSans-97"/>
      <use x="124.755859" xlink:href="#DejaVuSans-116"/>
      <use x="163.964844" xlink:href="#DejaVuSans-97"/>
     </g>
    </g>
    <g id="line2d_39">
     <path d="M 343.185625 146.862688 
L 363.185625 146.862688 
" style="fill:none;stroke:#ff7f0e;stroke-linecap:square;stroke-width:1.5;"/>
    </g>
    <g id="line2d_40"/>
    <g id="text_28">
     <!-- best-fit -->
     <defs>
      <path d="M 48.6875 27.296875 
Q 48.6875 37.203125 44.609375 42.84375 
Q 40.53125 48.484375 33.40625 48.484375 
Q 26.265625 48.484375 22.1875 42.84375 
Q 18.109375 37.203125 18.109375 27.296875 
Q 18.109375 17.390625 22.1875 11.75 
Q 26.265625 6.109375 33.40625 6.109375 
Q 40.53125 6.109375 44.609375 11.75 
Q 48.6875 17.390625 48.6875 27.296875 
z
M 18.109375 46.390625 
Q 20.953125 51.265625 25.265625 53.625 
Q 29.59375 56 35.59375 56 
Q 45.5625 56 51.78125 48.09375 
Q 58.015625 40.1875 58.015625 27.296875 
Q 58.015625 14.40625 51.78125 6.484375 
Q 45.5625 -1.421875 35.59375 -1.421875 
Q 29.59375 -1.421875 25.265625 0.953125 
Q 20.953125 3.328125 18.109375 8.203125 
L 18.109375 0 
L 9.078125 0 
L 9.078125 75.984375 
L 18.109375 75.984375 
z
" id="DejaVuSans-98"/>
      <path d="M 4.890625 31.390625 
L 31.203125 31.390625 
L 31.203125 23.390625 
L 4.890625 23.390625 
z
" id="DejaVuSans-45"/>
      <path d="M 37.109375 75.984375 
L 37.109375 68.5 
L 28.515625 68.5 
Q 23.6875 68.5 21.796875 66.546875 
Q 19.921875 64.59375 19.921875 59.515625 
L 19.921875 54.6875 
L 34.71875 54.6875 
L 34.71875 47.703125 
L 19.921875 47.703125 
L 19.921875 0 
L 10.890625 0 
L 10.890625 47.703125 
L 2.296875 47.703125 
L 2.296875 54.6875 
L 10.890625 54.6875 
L 10.890625 58.5 
Q 10.890625 67.625 15.140625 71.796875 
Q 19.390625 75.984375 28.609375 75.984375 
z
" id="DejaVuSans-102"/>
     </defs>
     <g transform="translate(371.185625 150.362688)scale(0.1 -0.1)">
      <use xlink:href="#DejaVuSans-98"/>
      <use x="63.476562" xlink:href="#DejaVuSans-101"/>
      <use x="125" xlink:href="#DejaVuSans-115"/>
      <use x="177.099609" xlink:href="#DejaVuSans-116"/>
      <use x="216.308594" xlink:href="#DejaVuSans-45"/>
      <use x="252.392578" xlink:href="#DejaVuSans-102"/>
      <use x="287.597656" xlink:href="#DejaVuSans-105"/>
      <use x="315.380859" xlink:href="#DejaVuSans-116"/>
     </g>
    </g>
   </g>
  </g>
 </g>
 <defs>
  <clipPath id="p87d322bb14">
   <rect height="64.512" width="357.12" x="58.523438" y="22.318125"/>
  </clipPath>
  <clipPath id="p53b1ffa42d">
   <rect height="258.048" width="357.12" x="58.523438" y="119.086125"/>
  </clipPath>
 </defs>
</svg>
