<svg data-name="Layer 1" inkscape:version="1.0.2 (e86c870879, 2021-01-15)" sodipodi:docname="bluesky-logo-dark.svg" version="1.1" viewBox="0 0 288 90" xmlns="http://www.w3.org/2000/svg" xmlns:cc="http://creativecommons.org/ns#" xmlns:dc="http://purl.org/dc/elements/1.1/" xmlns:inkscape="http://www.inkscape.org/namespaces/inkscape" xmlns:rdf="http://www.w3.org/1999/02/22-rdf-syntax-ns#" xmlns:sodipodi="http://sodipodi.sourceforge.net/DTD/sodipodi-0.dtd" xmlns:xlink="http://www.w3.org/1999/xlink"><metadata><rdf:RDF><cc:Work rdf:about=""><dc:format>image/svg+xml</dc:format><dc:type rdf:resource="http://purl.org/dc/dcmitype/StillImage"/><dc:title>Bluesky_Logo_Final</dc:title></cc:Work></rdf:RDF></metadata><sodipodi:namedview bordercolor="#666666" borderopacity="1" gridtolerance="10" guidetolerance="10" inkscape:current-layer="layer1" inkscape:cx="144" inkscape:cy="45" inkscape:pageopacity="0" inkscape:pageshadow="2" inkscape:window-height="1139" inkscape:window-maximized="0" inkscape:window-width="2250" inkscape:window-x="26" inkscape:window-y="23" inkscape:zoom="4.7326389" objecttolerance="10" pagecolor="#ffffff" showgrid="false"/><defs><style>.cls-1{fill:url(#linear-gradient);}.cls-2{fill:url(#linear-gradient-2);}.cls-3{fill:url(#linear-gradient-3);}.cls-4{fill:url(#linear-gradient-4);}.cls-5{fill:url(#linear-gradient-5);}.cls-6{fill:url(#linear-gradient-6);}.cls-7{fill:url(#linear-gradient-7);}.cls-8{fill:url(#linear-gradient-8);}</style><linearGradient id="linear-gradient" x1="115.44" x2="115.44" y1="75.82" y2="13.97" gradientUnits="userSpaceOnUse"><stop stop-color="#5db0d8" offset="0"/><stop stop-color="#477fb9" offset="1"/></linearGradient><linearGradient id="linear-gradient-2" x1="138.96" x2="138.96" y1="75.82" y2="13.97" xlink:href="#linear-gradient"/><linearGradient id="linear-gradient-3" x1="170.29" x2="170.29" y1="75.82" y2="13.97" xlink:href="#linear-gradient"/><linearGradient id="linear-gradient-4" x1="199.82" x2="199.82" y1="75.82" y2="13.97" xlink:href="#linear-gradient"/><linearGradient id="linear-gradient-5" x1="231.42" x2="231.42" y1="75.82" y2="13.97" xlink:href="#linear-gradient"/><linearGradient id="linear-gradient-6" x1="261" x2="261" y1="75.82" y2="13.97" xlink:href="#linear-gradient"/><linearGradient id="linear-gradient-7" x1="87.71" x2="87.71" y1="75.82" y2="13.97" xlink:href="#linear-gradient"/><linearGradient id="linear-gradient-8" x1="60.15" x2="60.15" y1="75.82" y2="13.97" xlink:href="#linear-gradient"/></defs><title>Bluesky_Logo_Final</title><g inkscape:groupmode="layer" inkscape:label="Letters"><path class="cls-1" d="m112.64 32.21a2.39 2.39 0 0 1 0.79-2 3.43 3.43 0 0 1 2.21-0.64 5.64 5.64 0 0 1 1.62 0.22q0.74 0.22 1 0.32v35.74h-5.61z"/><path class="cls-2" d="m127 43.76a2.38 2.38 0 0 1 0.79-2 3.52 3.52 0 0 1 2.21-0.61 5.64 5.64 0 0 1 1.62 0.22c0.49 0.15 0.82 0.25 1 0.32v12.94a7.36 7.36 0 0 0 1.57 5.09 7.53 7.53 0 0 0 9.64 0 7.36 7.36 0 0 0 1.57-5.09v-10.87a2.38 2.38 0 0 1 0.79-2 3.43 3.43 0 0 1 2.16-0.61 5.85 5.85 0 0 1 1.67 0.22c0.49 0.15 0.82 0.25 1 0.32v14.17a11.25 11.25 0 0 1-0.86 4.5 9.2 9.2 0 0 1-2.46 3.37 10.87 10.87 0 0 1-3.81 2.09 17 17 0 0 1-9.74 0 10.6 10.6 0 0 1-3.79-2.09 9.57 9.57 0 0 1-2.46-3.37 11 11 0 0 1-0.89-4.5z"/><path class="cls-3" d="m181.33 64q-0.39 0.25-1.23 0.69a12.54 12.54 0 0 1-2.09 0.84 23.67 23.67 0 0 1-2.9 0.69 20.55 20.55 0 0 1-3.62 0.3 15.44 15.44 0 0 1-5.14-0.84 11.94 11.94 0 0 1-4.18-2.48 11.7 11.7 0 0 1-2.83-4 13.69 13.69 0 0 1-1-5.48 13.94 13.94 0 0 1 1-5.39 12.31 12.31 0 0 1 2.8-4.18 12.62 12.62 0 0 1 4.23-2.71 14.43 14.43 0 0 1 5.34-1 14.15 14.15 0 0 1 4.53 0.66 10.48 10.48 0 0 1 3.32 1.77 7.24 7.24 0 0 1 2.73 5.73 7.46 7.46 0 0 1-0.64 3.12 5.65 5.65 0 0 1-2.26 2.41 13.51 13.51 0 0 1-4.39 1.61 35.68 35.68 0 0 1-7 0.57h-1.84l-1.84-0.07a6.11 6.11 0 0 0 2.44 4.06 9.48 9.48 0 0 0 5.83 1.55 13.21 13.21 0 0 0 2.36-0.2 13.44 13.44 0 0 0 1.94-0.49 13.82 13.82 0 0 0 1.48-0.59l0.91-0.44zm-17.26-11.63q1.13 0 2.16 0h2.07a22.44 22.44 0 0 0 4.38-0.34 8.85 8.85 0 0 0 2.61-0.89 2.76 2.76 0 0 0 1.22-1.14 3.59 3.59 0 0 0 0.29-1.43 3.09 3.09 0 0 0-1.5-2.8 6.9 6.9 0 0 0-3.71-0.93 7.52 7.52 0 0 0-3.2 0.64 6.94 6.94 0 0 0-2.31 1.7 7.78 7.78 0 0 0-1.45 2.44 8.79 8.79 0 0 0-0.56 2.75z"/><path class="cls-4" d="m190 59.7a7.65 7.65 0 0 0 1.23 0.64 21.88 21.88 0 0 0 2.19 0.81 22.81 22.81 0 0 0 3 0.71 21 21 0 0 0 3.64 0.29 11.17 11.17 0 0 0 4.18-0.66 2.33 2.33 0 0 0 1.62-2.29 2.38 2.38 0 0 0-1-2.09 8.6 8.6 0 0 0-3.69-1l-3.84-0.44a18 18 0 0 1-3.61-0.71 9.3 9.3 0 0 1-2.83-1.4 6.24 6.24 0 0 1-1.89-2.2 6.8 6.8 0 0 1-0.66-3.12 7.31 7.31 0 0 1 0.62-3 6.64 6.64 0 0 1 1.94-2.48 9.66 9.66 0 0 1 3.47-1.7 19 19 0 0 1 5.19-0.62 22.13 22.13 0 0 1 7.94 1.13q2.83 1.13 2.83 3a2.28 2.28 0 0 1-0.22 1 4.62 4.62 0 0 1-0.49 0.79 3.08 3.08 0 0 1-0.57 0.57 1.85 1.85 0 0 1-0.44 0.27 5.79 5.79 0 0 0-0.86-0.62 9.88 9.88 0 0 0-1.8-0.84 18.71 18.71 0 0 0-2.7-0.74 18.45 18.45 0 0 0-3.64-0.32q-5.71 0-5.71 3a2.14 2.14 0 0 0 1.1 1.96 7.8 7.8 0 0 0 3.1 0.91l5 0.64a13.44 13.44 0 0 1 6.34 2.24 5.85 5.85 0 0 1 2.26 5 7 7 0 0 1-2.93 5.9q-2.93 2.21-8.43 2.21a27.07 27.07 0 0 1-4.82-0.39 29.6 29.6 0 0 1-3.76-0.91 18.9 18.9 0 0 1-2.58-1 7.77 7.77 0 0 1-1.28-0.74z"/><path class="cls-5" d="m219.15 32.21a2.38 2.38 0 0 1 0.79-2 3.43 3.43 0 0 1 2.21-0.64 5.64 5.64 0 0 1 1.62 0.22q0.74 0.22 1 0.32v20.12q0.64-0.44 1.8-1.3l2.56-1.93 3-2.16q1.52-1.13 2.9-2.11a12.5 12.5 0 0 1 2-1.2 5.46 5.46 0 0 1 2.31-0.42 3.62 3.62 0 0 1 2.26 0.71 4.14 4.14 0 0 1 1.18 1.2q-1 0.93-2.83 2.28t-3.66 2.7q-1.87 1.35-3.54 2.5t-2.41 1.69a59.1 59.1 0 0 1 7.55 6.81 68.79 68.79 0 0 1 5.8 6.87h-7q-1.13-1.38-2.53-2.88t-3-3q-1.6-1.45-3.25-2.81t-3.17-2.49v11.16h-5.61z"/><path class="cls-6" d="m249 43.76a2.38 2.38 0 0 1 0.79-2 3.34 3.34 0 0 1 2.16-0.64 5.89 5.89 0 0 1 1.65 0.22q0.76 0.22 1 0.32v13.17a6.65 6.65 0 0 0 1.55 4.62 6.13 6.13 0 0 0 4.79 1.72 6.33 6.33 0 0 0 4.72-1.75 7 7 0 0 0 1.72-5.14v-10.52a2.38 2.38 0 0 1 0.79-2 3.34 3.34 0 0 1 2.16-0.64 5.9 5.9 0 0 1 1.65 0.22q0.76 0.22 1 0.32v21.58a16.61 16.61 0 0 1-0.93 5.93 10 10 0 0 1-6.79 6.3 18.87 18.87 0 0 1-5.36 0.71 28.17 28.17 0 0 1-3.69-0.22q-1.67-0.22-3-0.52t-2.14-0.57q-0.84-0.27-1.18-0.42 0.39-1 0.74-2.09t0.69-2.09c0.23 0.1 0.59 0.23 1.08 0.39a17.17 17.17 0 0 0 1.77 0.47q1 0.22 2.34 0.37a24.77 24.77 0 0 0 2.78 0.15 13.07 13.07 0 0 0 3.44-0.42 5.83 5.83 0 0 0 2.58-1.45 6.71 6.71 0 0 0 1.69-2.73 13.68 13.68 0 0 0 0.57-4.25 6.69 6.69 0 0 1-3.07 2.29 12 12 0 0 1-4.6 0.86 13.92 13.92 0 0 1-4.38-0.66 9.77 9.77 0 0 1-3.52-1.92 8.71 8.71 0 0 1-2.24-3.12 10.66 10.66 0 0 1-0.76-4.25z"/></g><g inkscape:groupmode="layer" inkscape:label="Logo"><path class="cls-7" d="m93.21 47.77a7.4 7.4 0 0 0-2.41-1.67 7.57 7.57 0 0 0-3.07-0.62 7.7 7.7 0 0 0-3.12 0.62 7 7 0 0 0-2.39 1.7 8 8 0 0 0-1.55 2.56 8.72 8.72 0 0 0-0.57 3.15 9 9 0 0 0 0.57 3.25 7.07 7.07 0 0 0 4 4.13 7.84 7.84 0 0 0 3.07 0.59 7.56 7.56 0 0 0 3.07-0.62 7.38 7.38 0 0 0 2.41-1.67 7.27 7.27 0 0 0 1.55-2.51 9 9 0 0 0 0.54-3.17 9.23 9.23 0 0 0-0.54-3.2 7.24 7.24 0 0 0-1.56-2.54z"/><path class="cls-8" d="m88.4 36.36h-0.72a28.18 28.18 0 0 0-52.29-8 20.89 20.89 0 0 0 0.51 41.77h52.5a16.905 16.905 0 1 0 0-33.81zm11.73 22.36a12 12 0 0 1-2.75 4.13 12.87 12.87 0 0 1-4.21 2.71 14.12 14.12 0 0 1-5.34 1 15.51 15.51 0 0 1-5.34-0.89 11.35 11.35 0 0 1-4.2-2.67 12.09 12.09 0 0 1-2.75-4.43 18 18 0 0 1-1-6.25v-20.11a2.39 2.39 0 0 1 0.79-2 3.42 3.42 0 0 1 2.21-0.64 5.63 5.63 0 0 1 1.62 0.22q0.74 0.22 1 0.32v14.15a10 10 0 0 1 3.39-2.68 10.76 10.76 0 0 1 5-1.11 12.78 12.78 0 0 1 5 1 11.93 11.93 0 0 1 4 2.71 12.6 12.6 0 0 1 2.66 4.13 13.92 13.92 0 0 1 1 5.24 13.67 13.67 0 0 1-1.09 5.17z"/></g></svg>
